<svg width="121" height="503" fill="none" xmlns="http://www.w3.org/2000/svg"><path d="M58.855 421.799c1.68-7.254 5.15-12.864 10.414-16.83 5.15-4.08 11.14-6.12 17.971-6.12 10.414 0 18.476 3.513 24.186 10.54 5.599 6.913 8.398 16.886 8.398 29.92v63.07H.909v-61.37c0-12.24 2.632-21.874 7.894-28.9 5.263-7.027 12.933-10.54 23.01-10.54 6.943 0 12.822 1.87 17.636 5.61 4.703 3.626 7.839 8.5 9.406 14.62zm-11.59 42.84v-14.62c0-3.4-.67-5.894-2.015-7.48-1.343-1.7-3.415-2.55-6.214-2.55-2.911 0-5.039.85-6.383 2.55-1.455 1.586-2.183 4.08-2.183 7.48v14.62h16.796zm42.663-17.17c0-3.4-.616-5.894-1.848-7.48-1.344-1.7-3.471-2.55-6.382-2.55-5.711 0-8.566 3.343-8.566 10.03v17.17h16.796v-17.17zm1.68-131.341v-36.38h28.216v74.12H.909v-37.74h90.698zM.908 198.682h67.016c5.487 0 9.853-1.19 13.1-3.57 3.136-2.494 4.704-6.46 4.704-11.9s-1.568-9.464-4.703-12.07c-3.248-2.607-7.614-3.91-13.101-3.91H.909v-37.57h67.016c11.31 0 20.995 2.38 29.057 7.14 7.95 4.76 13.94 11.276 17.971 19.55 4.031 8.273 6.047 17.51 6.047 27.71s-2.016 19.266-6.047 27.2c-4.031 7.82-10.021 13.94-17.971 18.36-7.95 4.42-17.636 6.63-29.057 6.63H.909v-37.57zM30.638 43.344H45.25v-37.4H73.3v37.4h16.796V.844h29.728v80.24H.909V.844h29.729v42.5z" fill="#7CBFC7"/></svg>